# xmcd
#
# Track frame offsets: 
#        150
#        25441
#        42847
#        62130
#        77544
#        95074
#        111149
#        126496
#        142145
#        157792
#        171732
#        185960
#        196515
#        232644
#
# Disc length: 3194 seconds
#
# Revision: 0
# Processed by: cddbd v1.5.2PL0 Copyright (c) Steve Scherf et al.
# Submitted via: ExactAudioCopy v0.95a5
#
DISCID=c10c780e
DTITLE=Willie Nelson - Moment of Forever
DYEAR=2008
DGENRE=
TTITLE0=Over You Again
TTITLE1=Moment of Forever
TTITLE2=The Bob Song
TTITLE3=Louisiana
TTITLE4=Gravedigger
TTITLE5=Keep Me From Blowing Away
TTITLE6=Takin' on Water
TTITLE7=Always Now
TTITLE8=I'm Alive
TTITLE9=When I was Young and Grandma Wasn't Old
TTITLE10=Worry B Gone
TTITLE11=You Don't Think I'm Funny Anymore
TTITLE12=Gotta Serve Somebody
TTITLE13=Extra Track
EXTD=
EXTT0=
EXTT1=
EXTT2=
EXTT3=
EXTT4=
EXTT5=
EXTT6=
EXTT7=
EXTT8=
EXTT9=
EXTT10=
EXTT11=
EXTT12=
EXTT13=
PLAYORDER=
